<?xml version="1.0" encoding="UTF-8" standalone="no"?>
<!-- Created with Inkscape (http://www.inkscape.org/) -->

<svg
   xmlns:dc="http://purl.org/dc/elements/1.1/"
   xmlns:cc="http://creativecommons.org/ns#"
   xmlns:rdf="http://www.w3.org/1999/02/22-rdf-syntax-ns#"
   xmlns:svg="http://www.w3.org/2000/svg"
   xmlns="http://www.w3.org/2000/svg"
   xmlns:sodipodi="http://sodipodi.sourceforge.net/DTD/sodipodi-0.dtd"
   xmlns:inkscape="http://www.inkscape.org/namespaces/inkscape"
   id="svg7704"
   version="1.1"
   inkscape:version="0.48.4 r9939"
   width="544.50385"
   height="157.50002"
   sodipodi:docname="zeta.png">
  <metadata
     id="metadata7710">
    <rdf:RDF>
      <cc:Work
         rdf:about="">
        <dc:format>image/svg+xml</dc:format>
        <dc:type
           rdf:resource="http://purl.org/dc/dcmitype/StillImage" />
        <dc:title></dc:title>
      </cc:Work>
    </rdf:RDF>
  </metadata>
  <defs
     id="defs7708" />
  <sodipodi:namedview
     pagecolor="#ffffff"
     bordercolor="#666666"
     borderopacity="1"
     objecttolerance="10"
     gridtolerance="10"
     guidetolerance="10"
     inkscape:pageopacity="0"
     inkscape:pageshadow="2"
     inkscape:window-width="1079"
     inkscape:window-height="480"
     id="namedview7706"
     showgrid="false"
     fit-margin-top="0"
     fit-margin-left="0"
     fit-margin-right="0"
     fit-margin-bottom="0"
     inkscape:zoom="0.37072876"
     inkscape:cx="4.4752651"
     inkscape:cy="209.82489"
     inkscape:window-x="1651"
     inkscape:window-y="360"
     inkscape:window-maximized="0"
     inkscape:current-layer="svg7704" />
  <path
     inkscape:connector-curvature="0"
     id="path7734"
     d="m 0,145.59185 c 0,-6.5495 0.24599,-13.24325 0.54663,-14.875 1.2029104,-6.52871 4.7935204,-11.3372 13.31086,-17.8257 C 16.4863,110.88853 32.47061,99.350015 49.37819,87.250018 66.28576,75.15002 80.14865,65.02502 80.18461,64.75002 80.22746,64.42229 66.89908,64.16388 41.5,64.00002 l -38.7499996,-0.25 -0.13215,-15.96608 c -0.10297,-12.44038 0.007,-16.05468 0.5,-16.36734 0.86346,-0.5481 122.9549996,-0.51347 123.8211096,0.0351 1.01136,0.64058 0.47953,22.48678 -0.65734,27.00176 -1.19965,4.76435 -3.45063,8.53786 -7.45157,12.49171 -4.28036,4.23 -6.01826,5.52535 -42.97702,32.03297 C 59.98386,114.35987 47,123.8571 47,124.08312 c 0,0.22602 18.05625,0.46854 40.124999,0.53892 l 40.125001,0.12798 0.13183,16.375 0.13183,16.375 -63.75683,0 -63.75683,0 0,-11.90817 z m 168.25,11.35359 c -10.05949,-1.45068 -15.26833,-5.15985 -17.70149,-12.6051 -2.24885,-6.88126 -2.29906,-7.99168 -2.28787,-50.590322 0.009,-35.658648 0.1087,-40.948278 0.83093,-44.249998 2.42626,-11.09189 6.26121,-15.2132 16.16734,-17.37455 3.63518,-0.79313 8.18232,-0.87099 50.99109,-0.87311 42.61545,-0.002 47.3418,0.0775 50.6641,0.85392 9.7382,2.27569 13.76735,6.377 15.96915,16.25526 0.7662,3.43745 0.86675,7.16525 0.86675,32.13848 l 0,28.25 -43,0 -43,0 0,-14.500002 0,-14.499998 26.47325,-0.12947 c 20.4161,-0.0999 26.56345,-0.27145 26.86735,-0.75 0.46085,-0.72564 0.55255,-12.91573 0.1059,-14.07964 -0.2727,-0.71068 -3.8229,-0.79089 -35.00387,-0.79089 l -34.70038,0 0.12887,30.374998 0.12888,30.375002 51.125,0.12736 51.125,0.12735 0,16.24765 0,16.24764 -56.375,-0.061 c -31.00625,-0.0335 -57.725,-0.25566 -59.375,-0.49361 z m 157.8033,-0.026 c -9.3199,-1.33274 -14.42335,-4.87686 -17.0762,-11.8587 -2.6568,-6.99203 -2.6085,-5.684 -2.83395,-76.7701 -0.11505,-36.27764 -0.0775,-66.48389 0.0833,-67.125 L 306.519,0 l 15.7405,0 15.74045,0 0.008,14.875 c 0.005,8.18125 0.1849,15.15411 0.40155,15.49523 0.303,0.47706 6.10125,0.65019 25.11735,0.75 l 24.7236,0.12979 0,16.25 0,16.25 -25,0.25 -25,0.25 -0.129,29.693948 c -0.0934,21.515782 0.0265,29.881532 0.43625,30.375002 0.463,0.5579 5.0294,0.68105 25.25395,0.68105 l 24.6888,0 0,16.25 0,16.25 -29.625,-0.0617 c -16.29375,-0.034 -31.0635,-0.26741 -32.8217,-0.51884 z m 98.00865,0.001 c -8.7238,-1.24796 -14.0082,-4.97364 -16.3681,-11.54002 -2.30265,-6.40698 -2.3425,-7.14031 -2.56005,-47.130495 -0.22105,-40.627455 0.01,-46.501595 2.08545,-53.046485 2.90845,-9.17134 8.27595,-12.57049 21.6452,-13.70755 4.2441,-0.36097 24.66245,-0.49327 60.88555,-0.39453 l 54.5,0.14857 0.1269,63.124998 0.12695,63.125002 -16.25195,0 -16.2519,0 0,-45.9591 c 0,-25.277512 -0.13655,-46.31501 -0.3035,-46.75 -0.2729,-0.7111 -3.97715,-0.79081 -36.75385,-0.79081 l -36.4504,0 0.1289,30.374998 0.12885,30.375002 27.875,0.1292 27.875,0.12919 0,16.24581 0,16.2458 -33.625,-0.0617 c -18.49375,-0.034 -35.05965,-0.26694 -36.81305,-0.51777 z"
     style="fill:#ffffff;fill-opacity:1" />
</svg>
