<?xml version="1.0" encoding="UTF-8" standalone="no"?>
<!-- Created with Inkscape (http://www.inkscape.org/) -->

<svg
   xmlns:dc="http://purl.org/dc/elements/1.1/"
   xmlns:cc="http://creativecommons.org/ns#"
   xmlns:rdf="http://www.w3.org/1999/02/22-rdf-syntax-ns#"
   xmlns:svg="http://www.w3.org/2000/svg"
   xmlns="http://www.w3.org/2000/svg"
   xmlns:sodipodi="http://sodipodi.sourceforge.net/DTD/sodipodi-0.dtd"
   xmlns:inkscape="http://www.inkscape.org/namespaces/inkscape"
   width="150"
   height="55"
   viewBox="0 0 150 55.000001"
   id="svg4516"
   version="1.1"
   inkscape:version="0.91 r13725"
   sodipodi:docname="zetaDash3.svg">
  <defs
     id="defs4518" />
  <sodipodi:namedview
     id="base"
     pagecolor="#ffffff"
     bordercolor="#666666"
     borderopacity="1.0"
     inkscape:pageopacity="0.0"
     inkscape:pageshadow="2"
     inkscape:zoom="4.7613009"
     inkscape:cx="63.298777"
     inkscape:cy="37.743324"
     inkscape:document-units="px"
     inkscape:current-layer="layer1"
     showgrid="false"
     showguides="true"
     inkscape:guide-bbox="true"
     inkscape:window-width="1440"
     inkscape:window-height="837"
     inkscape:window-x="-4"
     inkscape:window-y="-4"
     inkscape:window-maximized="1"
     units="px"
     guidetolerance="1"
     gridtolerance="1"
     objecttolerance="1">
    <sodipodi:guide
       position="7.8159123,7.968893"
       orientation="1,0"
       id="guide5311" />
    <sodipodi:guide
       position="92.418511,46.887379"
       orientation="0,1"
       id="guide5313" />
    <sodipodi:guide
       position="143.22731,8.0702272"
       orientation="0,1"
       id="guide5315" />
    <sodipodi:guide
       position="143.25614,8.0798346"
       orientation="1,0"
       id="guide5317" />
  </sodipodi:namedview>
  <metadata
     id="metadata4521">
    <rdf:RDF>
      <cc:Work
         rdf:about="">
        <dc:format>image/svg+xml</dc:format>
        <dc:type
           rdf:resource="http://purl.org/dc/dcmitype/StillImage" />
        <dc:title></dc:title>
      </cc:Work>
    </rdf:RDF>
  </metadata>
  <g
     inkscape:label="Camada 1"
     inkscape:groupmode="layer"
     id="layer1"
     transform="translate(0,-997.3621)">
    <path
       style="fill:#bdc3c7;fill-opacity:1"
       d="m 7.8928046,1040.6679 c 0.07051,-3.2275 0.1290043,-3.716 0.5320497,-4.4432 0.8575123,-1.5474 1.8772707,-2.3195 14.8339667,-11.2353 l 5.343631,-3.6768 -10.056502,-0.054 -10.7339164,-0.054 0,-4.0837 0,-4.0836 16.6835904,0 16.006165,0 -0.118183,3.2876 c -0.11343,3.1562 -0.144529,3.3396 -0.77724,4.5804 -0.411771,0.8073 -1.078625,1.6627 -1.777253,2.2788 -0.933823,0.8237 -7.693839,5.5998 -16.319663,11.5304 l -1.896646,1.3039 10.412893,0.054 10.666342,0.074 0,4.0837 0,4.0836 -16.565944,-0.024 -16.312499,0 z"
       id="path3346-7-7-0-3-1-7-8-6-3-9-8-2-2-2-6-1-2-6-7-2-3-2"
       inkscape:connector-curvature="0"
       sodipodi:nodetypes="ssscccccccsssscccccccs" />
    <path
       style="fill:#ffffff;fill-opacity:1;stroke:none"
       d="M 84.626953 8.125 L 84.664062 25.025391 C 84.70599 43.525391 84.671616 42.646328 85.423828 44.236328 C 86.174925 45.824228 87.262162 46.418838 90.173828 46.835938 L 90.173828 46.828125 C 90.343142 46.852125 93.709146 46.888672 97.654297 46.888672 L 104.82812 46.914062 L 104.82812 42.912109 L 104.82812 38.910156 L 98.609375 38.910156 L 92.390625 38.910156 L 92.390625 31.398438 L 92.390625 23.886719 L 98.609375 23.886719 L 104.82812 23.886719 L 104.82812 19.822266 L 104.82812 15.759766 L 98.609375 15.759766 L 92.390625 15.759766 L 92.390625 11.941406 L 92.390625 8.125 L 88.507812 8.125 L 84.626953 8.125 z M 40.5 15.693359 C 37.558844 18.325559 31.263992 22.249866 28.601562 23.947266 L 23.257812 27.625 C 10.301116 36.5405 9.2813403 37.311875 8.4238281 38.859375 C 8.0207753 39.586575 7.963076 40.075634 7.8925781 43.302734 L 7.8125 46.914062 C 12.207156 43.849463 17.576871 40.105463 21.509766 37.351562 C 30.135595 31.420963 36.89431 26.643812 37.828125 25.820312 C 38.526751 25.203813 39.193698 24.348616 39.605469 23.541016 C 40.238182 22.300316 40.269343 22.117138 40.382812 18.960938 L 40.5 15.693359 z M 143.24805 15.746094 L 128.74805 15.796875 C 118.95034 15.830975 114.03535 15.892422 113.5918 15.982422 C 110.67461 16.579622 109.73164 17.547931 109.11523 20.582031 C 108.92388 21.523731 108.83344 39.002847 109.00977 40.935547 C 109.38077 45.002647 110.49033 46.34645 113.83984 46.78125 L 113.83984 46.773438 C 114.26698 46.829438 118.28843 46.890625 122.77539 46.890625 L 130.93359 46.914062 L 130.93359 42.912109 L 130.93359 38.910156 L 124.03711 38.910156 L 117.14062 38.910156 L 117.14062 31.398438 L 117.14062 23.886719 L 126.19141 23.886719 L 135.24219 23.886719 L 135.24219 35.400391 L 135.24219 46.914062 L 139.24609 46.914062 L 143.24805 46.914062 L 143.24805 31.330078 L 143.24805 15.746094 z M 55.585938 15.785156 C 53.565461 15.798106 52.244862 15.827094 51.673828 15.871094 C 47.707047 16.174794 46.49812 17.144047 45.824219 20.560547 C 45.738962 20.991847 45.670736 24.482016 45.634766 30.166016 C 45.563547 41.386416 45.657606 42.754737 46.632812 44.523438 C 47.335135 45.797537 48.643015 46.520691 50.707031 46.775391 L 50.707031 46.767578 C 51.181133 46.825378 57.761522 46.888672 65.330078 46.888672 L 79.091797 46.914062 L 79.091797 42.912109 L 79.091797 38.910156 L 66.46875 38.910156 L 53.847656 38.910156 L 53.847656 31.398438 L 53.847656 23.886719 L 62.466797 23.886719 L 71.085938 23.886719 L 71.085938 25.794922 L 71.085938 27.703125 L 64.4375 27.703125 L 57.787109 27.703125 L 57.787109 31.335938 L 57.787109 34.96875 L 68.447266 34.96875 L 79.107422 34.96875 L 79.058594 27.919922 C 79.017164 21.972822 78.976523 20.740009 78.808594 20.037109 C 78.369202 18.199209 77.558643 17.031247 76.349609 16.498047 C 74.90974 15.862047 74.724236 15.851969 63.697266 15.792969 C 60.326196 15.774169 57.606414 15.772206 55.585938 15.785156 z "
       id="path3346-7-7-0-3-1-7-8-7-0-7-2-5-5-51-7-8-3-0-5-1-2-1-6"
       transform="translate(0,997.3621)" />
  </g>
</svg>
